# xmcd
#
# Track frame offsets:
#	150
#	14938
#	33462
#	44605
#	58697
#	74114
#	93287
#	113111
#	127633
#	154394
#	174434
#	200621
#	218714
#	237614
#	256903
#	273091
#
# Disc length: 4012
#
# Revision: 2
# Processed by: cddbd v1.5.1PL0 Copyright (c) Steve Scherf et al.
# Submitted via: CDex 1.30Release
# Normalized: r1:TDELIM( - )
#
DISCID=ee0faa10
DTITLE=Various Artist - Another Country 2
DYEAR=2003
DGENRE=Country
TTITLE0=Cub Country - Your Old Street
TTITLE1=Eileen Rose - Wheels Going By
TTITLE2=Damien Jurado - Abilene
TTITLE3=Chris Mills - Lullaby
TTITLE4=Iron and Wine - The Rooster Moans
TTITLE5=Pieta, Zoe and Constie Brown - Ella Mae
TTITLE6=The Black Heart Procession - A Sign On The Road
TTITLE7=Ryan Adams - My Winding Wheel
TTITLE8=Okkervil River - Westfall
TTITLE9=Azure Ray - November
TTITLE10=Songs:Ohia - Steve Albini's Bluers
TTITLE11=Giant Sand - Shiver
TTITLE12=The Boggs - How Long?
TTITLE13=Richard Buckner - A Goodbye Rye
TTITLE14=Mark Kozelek - What's Next To The Moon
TTITLE15=Hope Sandoval and The Warm Inventions - Clear Day
EXTD=YEAR: 2003 ID3G:   2
EXTT0=
EXTT1=
EXTT2=
EXTT3=
EXTT4=
EXTT5=
EXTT6=
EXTT7=
EXTT8=
EXTT9=
EXTT10=
EXTT11=
EXTT12=
EXTT13=
EXTT14=
EXTT15=
PLAYORDER=
